/* XPM */
static char *_2017b3e1c02496ab7cc4247bc76a5be9TYtApxbA4ywjnSV[] = {
/* columns rows colors chars-per-pixel */
"64 64 249 2 ",
"   c None",
".  c #FF7A7D",
"X  c #FF9D4F",
"o  c #FF9F53",
"O  c #FFB87F",
"+  c #FF73CD",
"@  c #FF79CF",
"#  c #FF7FD2",
"$  c gray53",
"%  c #8B8B8B",
"&  c gray55",
"*  c #8E8E8E",
"=  c #909090",
"-  c gray57",
";  c #929292",
":  c gray58",
">  c #959595",
",  c #989898",
"<  c gray60",
"1  c #9B9B9B",
"2  c gray61",
"3  c #9D9D9D",
"4  c gray62",
"5  c #9F9F9F",
"6  c #A0A0A0",
"7  c gray63",
"8  c #A2A2A2",
"9  c gray64",
"0  c #A4A4A4",
"q  c #A5A5A5",
"w  c #A7A7A7",
"e  c gray66",
"r  c #A9A9A9",
"t  c #AAAAAA",
"y  c gray67",
"u  c #ACACAC",
"i  c gray68",
"p  c #AEAEAE",
"a  c #AFAFAF",
"s  c gray69",
"d  c #B2B2B2",
"f  c #B4B4B4",
"g  c gray71",
"h  c #B7B7B7",
"j  c gray72",
"k  c gray73",
"l  c #BBBBBB",
"z  c #BCBCBC",
"x  c gray74",
"c  c gray",
"v  c gray75",
"b  c #FF8587",
"n  c #FF8789",
"m  c #FF979A",
"M  c #FF9B9E",
"N  c #FFBA83",
"B  c #FFBF8C",
"V  c #FFA2A5",
"C  c #FFADAF",
"Z  c #FFB6B8",
"A  c #A4FFBB",
"S  c #A4FFBC",
"D  c #FFC08F",
"F  c #FFC79A",
"G  c #FFC89C",
"H  c #FFF484",
"J  c #FFF593",
"K  c #FFF699",
"L  c #FFD2AF",
"P  c #FFD8B8",
"I  c #FFF7A9",
"U  c #FFF8AC",
"Y  c #FFF8AE",
"T  c #FFF8B3",
"R  c #FFF9B7",
"E  c #B982FF",
"W  c #BE8BFF",
"Q  c #BF8DFF",
"!  c #FF81D2",
"~  c #FF8CD6",
"^  c #FF93D8",
"/  c #FF94D9",
"(  c #C190FF",
")  c #C597FF",
"_  c #C89EFF",
"`  c #CCA5FF",
"'  c #D4B2FF",
"]  c #D9BBFF",
"[  c #DABDFF",
"{  c #FFABE1",
"}  c #FFB9E6",
"|  c #FFAAF8",
" . c #FFB3F9",
".. c #FFB4F9",
"X. c #AEFFC3",
"o. c #AFFFC3",
"O. c #B3FFC7",
"+. c #BAFFCC",
"@. c #BCFFCD",
"#. c #86D2FF",
"$. c #8CD4FF",
"%. c #8DD5FF",
"&. c #8FD5FF",
"*. c #90D6FF",
"=. c #95D8FF",
"-. c #96D8FF",
";. c #A1DCFF",
":. c #AAE0FF",
">. c #B9E5FF",
",. c #C0C0C0",
"<. c #C1C1C1",
"1. c gray76",
"2. c #C3C3C3",
"3. c gray77",
"4. c #C6C6C6",
"5. c gray78",
"6. c #C8C8C8",
"7. c gray79",
"8. c #CACACA",
"9. c gray80",
"0. c #CDCDCD",
"q. c #CECECE",
"w. c gray81",
"e. c #D0D0D0",
"r. c gray82",
"t. c LightGray",
"y. c gray83",
"u. c #D5D5D5",
"i. c gray84",
"p. c #D7D7D7",
"a. c #D8D8D8",
"s. c gray85",
"d. c #DADADA",
"f. c gray86",
"g. c #DDDDDD",
"h. c #DFDFDF",
"j. c #FFC5C7",
"k. c #FFCCCD",
"l. c #FFCECF",
"z. c #FFDEC4",
"x. c #FFDFC5",
"c. c #FFCFD1",
"v. c #D1FFDD",
"b. c #FFFAC6",
"n. c #FFFAC9",
"m. c #FFFACB",
"M. c #FFE8D6",
"N. c #FFE9D7",
"B. c #FFE9D8",
"V. c #FFEADA",
"C. c #FFECDC",
"Z. c #FFFBD7",
"A. c #FFFCDF",
"S. c #DFC5FF",
"D. c #FFCBED",
"F. c #FFCFEE",
"G. c #E2CCFF",
"H. c #E3CDFF",
"J. c #FFCBFB",
"K. c #ECDEFF",
"L. c #EDDFFF",
"P. c #FFD9F1",
"I. c #FFDEF3",
"U. c #FFD1FB",
"Y. c #FFD2FB",
"T. c #D8FFE2",
"R. c #CAEBFF",
"E. c #CDECFF",
"W. c #D4EFFF",
"Q. c #D7F0FF",
"!. c #DEF3FF",
"~. c gray88",
"^. c #E1E1E1",
"/. c #E2E2E2",
"(. c gray89",
"). c #E4E4E4",
"_. c gray90",
"`. c #E6E6E6",
"'. c gray91",
"]. c #E9E9E9",
"[. c #EAEAEA",
"{. c gray92",
"}. c #ECECEC",
"|. c gray93",
" X c #EEEEEE",
".X c #EFEFEF",
"XX c #FFE1E2",
"oX c #FFEFE2",
"OX c #FFEFE3",
"+X c #FFEEEE",
"@X c #E5FFEC",
"#X c #E9FFEF",
"$X c #FFFDE6",
"%X c seashell",
"&X c #FFFDEB",
"*X c #FFFDEC",
"=X c #FFE1F4",
"-X c #FFE9F7",
";X c #F0E5FF",
":X c #F3EAFF",
">X c #F5EDFF",
",X c #FFEDF9",
"<X c #E1F4FF",
"1X c #E5F5FF",
"2X c #EFF9FF",
"3X c gray94",
"4X c #F1F1F1",
"5X c gray95",
"6X c #F3F3F3",
"7X c #F4F4F4",
"8X c gray96",
"9X c #F6F6F6",
"0X c gray97",
"qX c #FFF7F1",
"wX c #FFF8F2",
"eX c #FFFEF4",
"rX c #FFF2FA",
"tX c #FFF5FB",
"yX c #FFF2FE",
"uX c #FFF3FE",
"iX c #FAF5FF",
"pX c #FFF7FE",
"aX c #F1FAFF",
"sX c #F8F8F8",
"dX c #F9F9F9",
"fX c gray98",
"gX c #FBFBFB",
"hX c #FFF9F9",
"jX c #FFFBF9",
"kX c snow",
"lX c #F9FFFA",
"zX c #FFFEF8",
"xX c #FBF9FF",
"cX c #FFF8FE",
"vX c #FCFAFF",
"bX c #F8FCFF",
"nX c #FAFDFF",
"mX c #FBFDFF",
"MX c gray99",
"NX c #FDFDFD",
"BX c #FFFDFC",
"VX c #FFFDFD",
"CX c #FFFCFE",
"ZX c #FEFEFE",
"AX c #FFFEFE",
"SX c #FFFFFE",
"DX c #FFFEFF",
"FX c #FEFFFF",
"GX c white",
/* pixels */
"                                                                                                                                ",
"                                                                                                                                ",
"                                                                                                                                ",
"                                                                                                                                ",
"                                                                                                                                ",
"                                                          < 7 7 7 7 4 -                                                         ",
"                                              > d 6.a.].5X7XsXsXsXGX7X7X].(.r.z 7                                               ",
"                                        < <.g.7XGXGXGXGXGXGXGXGXGXGXGXGXGXGXGXGXsX].w.r                                         ",
"                                    i a.7XGXGXGXGXGXGXGXGXGXGXGXGXGXGXGXGXGXGXGXGXGXGXsX).<.                                    ",
"                                i ~.sXGXGXGXGXGXGXGXGXGXGXGXGXGXGXGXGXGXGXGXGXGXGXGXGXGXGXGX}.5.                                ",
"                            < a.sXGXGXGXGXGXGXGXGXGXGXGXGXGXGXGXGXGXGXGXGXGXGXGXGXGXGXGXGXGXGXGX].h                             ",
"                          z 5XGXGXGXGXGXGXGXGXGXGXGXGXGXGXGXGXGXGXGXGXGXGXGXGXGXGXGXGXGXGXGXGXGXGXsXu.-                         ",
"                        u.GXGXGXGXGXGXGXGXGXGXGXGXGXGXGXGXGXGXGXGXGXGXGXGXGXGXGXGXGXGXGXGXGXGXGXGXGXGX}.r                       ",
"                    < (.GXGXGXGXGXGXGXGXGXGXGXGXGXGXGXGXGXGXGXGXGXGXGXGXGXGXGXGXGXGXGXGXGXGXGXGXGXGXGXGX7Xl                     ",
"                  4 ].GXGXGXGXGXGXGXGXGXGXGXGXGXGXGXGXGXGXGXGXGXGXGXGXGXGXGXGXGXGXGXGXGXGXGXGXGXGXGXGXGXGXsX<.                  ",
"                4 }.GXGXGXGXGXGXGXGXGXiXxXGXGXGXGXGXGXGXGXGXGXGXGXGXGXGXGXxXGXGXGXGXGXGXGXGXGXGXGXGXGXGXGXGXGX<.                ",
"              - ].GXGXGXGXGXGXGXGXGXK.W ) S.GXGXGXC M k.GXGXGXT.v.GXGXGXrX~ I.GXGXGXGXGXGXGXGXGXGXGXGXGXGXGXGXsXl               ",
"              g.GXGXGXGXGXGXGXGXGXGXG._ ;XE :XGXhXb j.+XGXGXGX+.X.GXGXGXD.+ { GXGXGXGXGXGXGXGXGXGXGXGXGXGXGXGXGX7X0             ",
"            6.GXGXGXGXGXGXGXGXGXGXGXG.` GXQ K.GXhX. m XXGXGXGX@.X.GXGXGX^ / @ tXGXGXGXGXGXGXGXGXGXGXGXGXGXGXGXGXGX].&           ",
"          r sXGXGXGXGXGXGXGXGXGXGXGXG.W [ ( iXGXhXn k.+XGXGXlXA O.GXGX-X! } # F.GXGXGXGXGXGXGXGXGXGXGXGXGXGXGXGXGXGXr.          ",
"          ).GXGXGXGXGXGXGXGXGXGXGXGX>X' ] :XGXGXGXZ V c.GXGX#XA @XGXGX,XP.GX=X=XGXGXGXGXGXGXGXGXGXGXGXGXGXGXGXGXGXGXsXr         ",
"        z GXGXGXGXGXGXGXGXGXGXGXGXGXGXGXGXGXGXGXGXGXGXGXGXGXGXGXGXGXGXGXGXGXGXGXGXGXGXGXGXGXGXGXGXGXGXGXGXGXGXGXGXGXGX(.        ",
"        ].GXGXGXGXGXGXGXGXGXGXGXGXGXGXGXGXGXGXGXGXGXGXGXGXGXGXGXGXGXGXGXGXGXGXGXGXGXGXGXGXGXGXGXGXGXGXGXGXGXGXGXGXGXGXGXh       ",
"      l GXGXGXGXGXGXGXGXGXGXGXGXGXGXGXGXGXGXGXGXGXGXGXGXGXGXGXGXGXGXGXGXGXGXGXGXGXGXGXGXGXGXGXGXGXGXGXGXGXGXGXGXGXGXGXGX(.      ",
"      (.GXGXGXGXGXGXGXGXGXGXGXGXGXGXGXGXGXGXGXGXGXGXGXGXGXGXGXGXGXGXGXGXGXGXGXGXGXGXGXGXGXGXGXGXGXGXGXGXGXGXGXGXGXGXGXGXsXr     ",
"    0 sXGXGXGXGXGXGXGXGXGXGXGXGXGXGXGXGXGXGXGXGXGXGXGXGXGXGXGXGXGXGXGXGXGXGXGXGXGXGXGXGXGXGXGXGXGXGXGXGXGXGXGXGXGXGXGXGXGXw.    ",
"    5.GXGXGXGXGXGXGXGXGXGXGXGXGXGXGXGXGXGXGXGXGXGXGXGXGXGXGXGXGXGXGXGXGXGXGXGXGXGXGXGXGXGXGXGXGXGXGXGXGXGXGXGXGXGXGXGXGXGX].    ",
"    (.GXGXGXGXGXGXGXGXGXGXGXGXGXGXGXGXGXGXGXGXGXGXGXGXGXGXGXGXGXGXGXGXGXGXGXGXGXGXGXGXGXGXGXGXGXGXGXGXGXGXGXGXGXGXGXGXGXGXsX0   ",
"  - 7XGXGXGXGXGXGXGXGXGXGXGXGXGXGXGXGXGXGXGXGXGXGXGXGXGXGXGXGXGXGXGXGXGXGXGXGXGXGXGXGXGXGXGXGXGXGXGXGXGXGXGXGXGXGXGXGXGXGXGXz   ",
"  0 sXGXGXGXGXGXGXGXGXGXGXGXGXGXGXGXGXGXGXGXGXGXGXGXGXGXGXGXGXGXGXGXGXGXGXGXGXGXGXGXGXGXGXGXGXGXGXGXGXGXGXGXGXGXGXGXGXGXGXGXu.  ",
"  l GXGXGXGXGXGXGXGXGXGXGXGXGXGXGXGXGXGXGXGXGXGXGXGXGXGXGXGXGXGXGXGXGXGXGXGXGXGXGXGXGXGXGXGXGXGXGXGXGXGXGXGXGXGXGXGXGXGXGXGX(.  ",
"  6.GXGXGXGXGXGXGXGXGXeX$XzXGXGXGXGXGXGXGX2X1XnXGXGXGXGXGXGXGXyXiXGXGXGXGXGXwXx.hXC.qXGXGXGXGXGXGXGXGXGXGXGXGXGXGXGXGXGXGXGX].  ",
"  w.GXGXGXGXGXGXGXGX&XJ K b.GXGXGXGXGXGXW.&.-.;.nXGXGXGXGXGXGX .Y.GXGXGXGXGXV.X x.G M.GXGXGXGXGXGXGXGXGXGXGXGXGXGXGXGXGXGXGX}.& ",
"  r.GXGXGXGXGXGXGXGXT Y GXzXGXGXGXGXGXGX-.E.nX#.<XGXGXGXGXGXGX| J.GXGXGXGXGXN.O B B M.GXGXGXGXGXGXGXGXGXGXGXGXGXGXGXGXGXGXGX5X$ ",
"  r.GXGXGXGXGXGXGXGXI R GXGXGXGXGXGXGXGX&.Q.GX&.!.GXGXGXGXGXGX| J.GXGXGXGXGXN.F L o N.GXGXGXGXGXGXGXGXGXGXGXGXGXGXGXGXGXGXGX5X$ ",
"  w.GXGXGXGXGXGXGXGXZ.H Y n.GXGXGXGXGXGX>.&.;.=.nXGXGXGXGXGXGX..Y.GXGXGXGXGXoXP %XN oXGXGXGXGXGXGXGXGXGXGXGXGXGXGXGXGXGXGXGX}.% ",
"  5.GXGXGXGXGXGXGXGXGXA.n.*XGXGXGXGXGXGXnXW.R.aXGXGXGXGXGXGXGXyXiXGXGXGXGXGXGXzXGXzXGXGXGXGXGXGXGXGXGXGXGXGXGXGXGXGXGXGXGXGX].  ",
"  l GXGXGXGXGXGXGXGXGXGXGXGXGXGXGXGXGXGXGXGXGXGXGXGXGXGXGXGXGXGXGXGXGXGXGXGXGXGXGXGXGXGXGXGXGXGXGXGXGXGXGXGXGXGXGXGXGXGXGXGX(.  ",
"  r sXGXGXGXGXGXGXGXGXGXGXGXGXGXGXGXGXGXGXGXGXGXGXGXGXGXGXGXGXGXGXGXGXGXGXGXGXGXGXGXGXGXGXGXGXGXGXGXGXGXGXGXGXGXGXGXGXGXGXGXr.  ",
"  - 5XGXGXGXGXGXGXGXGXGXGXGXGXGXGXGXGXGXGXGXGXGXGXGXGXGXGXGXGXGXGXGXGXGXGXGXGXGXGXGXGXGXGXGXGXGXGXGXGXGXGXGXGXGXGXGXGXGXGXGX<.  ",
"    (.GXGXGXGXGXGXGXGXGXGXGXGXGXGXGXGXGXGXGXGXGXGXGXGXGXGXGXGXGXGXGXGXGXGXGXGXGXGXGXGXGXGXGXGXGXGXGXGXGXGXGXGXGXGXGXGXGXGXsX0   ",
"    5.GXGXGXGXGXGXGXGXGXGXGXGXGXGXGXGXGXGXGXGXGXGXGXGXGXGXGXGXGXGXGXGXGXGXGXGXGXGXGXGXGXGXGXGXGXGXGXGXGXGXGXGXGXGXGXGXGXGX].    ",
"    0 sXGXGXGXGXGXGXGXGXGXGXGXGXGXGXGXGXGXGXGXGXGXGXGXGXGXGXGXGXGXGXGXGXGXGXGXGXGXGXGXGXGXGXGXGXGXGXGXGXGXGXGXGXGXGXGXGXGXr.    ",
"      (.GXGXGXGXGXGXGXGXGXGXGXGXGXGXGXGXGXGXGXGXGXGXGXGXGXGXGXGXGXGXGXGXGXGXGXGXGXGXGXGXGXGXGXGXGXGXGXGXGXGXGXGXGXGXGXGXsXi     ",
"      z GXGXGXGXGXGXGXGXGXGXGXGXGXGXGXGXGXGXGXGXGXGXGXGXGXGXGXGXGXGXGXGXGXGXGXGXGXGXGXGXGXGXGXGXGXGXGXGXGXGXGXGXGXGXGXGX(.      ",
"        }.GXGXGXGXGXGXGXGXGXGXGXGXGXGXGXGXGXGXGXGXGXGXGXGXGXGXGXGXGXGXGXGXGXGXGXGXGXGXGXGXGXGXGXGXGXGXGXGXGXGXGXGXGXGXGXl       ",
"        z GXGXGXGXGXGXGXGXGXGXGXGXGXGXGXGXGXGXGXGXGXGXGXGXGXGXGXGXGXGXGXGXGXGXGXGXGXGXGXGXGXGXGXGXGXGXGXGXGXGXGXGXGXGX).        ",
"          ).GXGXGXGXGXGXGXGXGXGXGXGXGXGXGXGXGXGXGXGXGXGXGXGXGXGXGXGXGXGXGXGXGXGXGXGXGXGXGXGXGXGXGXGXGXGXGXGXGXGXGXGXsXi         ",
"          i sXGXGXGXGXGXGXGXGXGXGXGXGXGXGXGXGXGXGXGXGXGXGXGXGXGXGXGXGXGXGXGXGXGXGXGXGXGXGXGXGXGXGXGXGXGXGXGXGXGXGXGXu.          ",
"            6.GXGXGXGXGXGXGXGXGXGXGXGXGXGXGXGXGXGXGXGXGXGXGXGXGXGXGXGXGXGXGXGXGXGXGXGXGXGXGXGXGXGXGXGXGXGXGXGXGXGX].&           ",
"              g.GXGXGXGXGXGXGXGXGXGXGXGXGXGXGXGXGXGXGXGXGXGXGXGXGXGXGXGXGXGXGXGXGXGXGXGXGXGXGXGXGXGXGXGXGXGXGXGX7Xr             ",
"              > ].GXGXGXGXGXGXGXGXGXGXGXGXGXGXGXGXGXGXGXGXGXGXGXGXGXGXGXGXGXGXGXGXGXGXGXGXGXGXGXGXGXGXGXGXGXGXsXz               ",
"                4 }.GXGXGXGXGXGXGXGXGXGXGXGXGXGXGXGXGXGXGXGXGXGXGXGXGXGXGXGXGXGXGXGXGXGXGXGXGXGXGXGXGXGXGXGXGX<.                ",
"                  7 }.GXGXGXGXGXGXGXGXGXGXGXGXGXGXGXGXGXGXGXGXGXGXGXGXGXGXGXGXGXGXGXGXGXGXGXGXGXGXGXGXGXGXsX<.                  ",
"                    < ).GXGXGXGXGXGXGXGXGXGXGXGXGXGXGXGXGXGXGXGXGXGXGXGXGXGXGXGXGXGXGXGXGXGXGXGXGXGXGXGXsXz                     ",
"                        u.GXGXGXGXGXGXGXGXGXGXGXGXGXGXGXGXGXGXGXGXGXGXGXGXGXGXGXGXGXGXGXGXGXGXGXGXGXGX}.i                       ",
"                          z 7XGXGXGXGXGXGXGXGXGXGXGXGXGXGXGXGXGXGXGXGXGXGXGXGXGXGXGXGXGXGXGXGXGXGXsXa.>                         ",
"                            4 a.sXGXGXGXGXGXGXGXGXGXGXGXGXGXGXGXGXGXGXGXGXGXGXGXGXGXGXGXGXGXGXGX}.l                             ",
"                                d (.GXGXGXGXGXGXGXGXGXGXGXGXGXGXGXGXGXGXGXGXGXGXGXGXGXGXGXGX5X5.                                ",
"                                    i a.7XGXGXGXGXGXGXGXGXGXGXGXGXGXGXGXGXGXGXGXGXGXGXGX).<.-                                   ",
"                                        4 <.(.7XGXGXGXGXGXGXGXGXGXGXGXGXGXGXGXGXsX}.r.i                                         ",
"                                              < d w.g.].5X7XsXGXsXsXsX5X}.(.u.z 0                                               ",
"                                                          4 0 7 0 0 7 >                                                         ",
"                                                                                                                                "
};
