/* XPM */
static char *_b6753e0dbec4f05997521937728f34bx63aBe7qPqLgVJd5[] = {
/* columns rows colors chars-per-pixel */
"16 16 62 1 ",
"  c None",
". c gray87",
"X c #FFD6D7",
"o c #FFE4CE",
"O c #FFCFEF",
"+ c #EAD6FC",
"@ c #CDEDFF",
"# c gray88",
"$ c #E1E1E1",
"% c #E2E2E2",
"& c gray89",
"* c #E4E4E4",
"= c #E7E7E7",
"- c gray91",
"; c #E9E9E9",
": c gray92",
"> c gray93",
", c #EFEFEF",
"< c #FFEEE0",
"1 c #EFFBEF",
"2 c #FFFDE4",
"3 c #FFFDEB",
"4 c #EFE2FF",
"5 c gray94",
"6 c #F3F3F3",
"7 c #F0F6F1",
"8 c #F6F6F6",
"9 c #FFF3F3",
"0 c #FFF9F5",
"q c #FFFBF7",
"w c #FFF3FB",
"e c #FFF1FE",
"r c #FFF3FF",
"t c #FAF4FE",
"y c #FAF7FF",
"u c #F3FBFF",
"i c #F3FCFF",
"p c #F6FCFF",
"a c #F7FCFF",
"s c #F9F9F9",
"d c gray98",
"f c #FBFBFB",
"g c snow",
"h c #F9FEF9",
"j c #FAFCFA",
"k c #FFFCF9",
"l c #FFFEF9",
"z c #FFFFFA",
"x c #FFFAFD",
"c c #FCFAFF",
"v c #FDFBFF",
"b c gray99",
"n c #FFFDFC",
"m c #FEFEFD",
"M c #FFFCFE",
"N c #FFFDFF",
"B c #FDFEFF",
"V c #FEFEFE",
"C c #FEFEFF",
"Z c #FFFEFF",
"A c #FEFFFF",
"S c white",
/* pixels */
"                ",
"      #;;&      ",
"    >sSSSSs>    ",
"  #sStgSSxSSs*  ",
"  sS4+X17OSSSs# ",
" 6SStt9hswSSSS8 ",
".SSSSSSSSSSSSSS*",
";SllSiSSS00SSSS>",
";S23p@urr<oSSSS>",
";SlkSuSSxSlSSSS>",
".xSSSSSSSSSSSSS#",
" 7SSSSSSSSSSSS8 ",
"  sSSSSSSSSSSS. ",
"  #sSSSSSSSSs*  ",
"    >sSSSSs6    ",
"      #;;#      "
};
