/* XPM */
static char *_f27be0439ee427d85b894efdc99b72aR5GWbwHlEAXQ4m5u[] = {
/* columns rows colors chars-per-pixel */
"32 32 123 2 ",
"   c None",
".  c #FFC99E",
"X  c #FFCEA7",
"o  c #FFD2AE",
"O  c #FFF9BD",
"+  c #FFA1DD",
"@  c #D8B8FF",
"#  c #D9BBFF",
"$  c #DBBFFF",
"%  c #FFB9E6",
"&  c #FFBBE7",
"*  c #BBE6FF",
"=  c #BCE6FF",
"-  c #C0C0C0",
";  c gray76",
":  c #C3C3C3",
">  c gray77",
",  c #C5C5C5",
"<  c #C6C6C6",
"1  c gray78",
"2  c gray80",
"3  c #CDCDCD",
"4  c #CECECE",
"5  c gray81",
"6  c #D0D0D0",
"7  c gray82",
"8  c LightGray",
"9  c gray83",
"0  c #D5D5D5",
"q  c gray84",
"w  c #D7D7D7",
"e  c #D8D8D8",
"r  c gray85",
"t  c #DADADA",
"y  c #FFC3C3",
"u  c #FFC5C7",
"i  c #FFC8C9",
"p  c #FFCFCF",
"a  c #D3FFDE",
"s  c #FFE3CD",
"d  c #FFFAC3",
"f  c #FFFCDB",
"g  c #FFFCDF",
"h  c #DDC3FF",
"j  c #FFDBF2",
"k  c #FFDCFC",
"l  c #D8FFE2",
"z  c #C0E8FF",
"x  c #E1E1E1",
"c  c #E2E2E2",
"v  c #E4E4E4",
"b  c gray90",
"n  c #E6E6E6",
"m  c #E7E7E7",
"M  c gray91",
"N  c #E9E9E9",
"B  c #EAEAEA",
"V  c #ECECEC",
"C  c gray93",
"Z  c #EEEEEE",
"A  c #EFEFEF",
"S  c #FFE1E2",
"D  c #FFEAEB",
"F  c #E2FFE9",
"G  c #E4FFEB",
"H  c #E7FFED",
"J  c #FFF0E5",
"K  c #FFF1E5",
"L  c #FFF4EB",
"P  c seashell",
"I  c #FFFDEA",
"U  c #F1E5FF",
"Y  c #F1E6FF",
"T  c #FFE4FD",
"R  c #F4EEFF",
"E  c #FFEFF9",
"W  c #E9F7FF",
"Q  c #ECF8FF",
"!  c #EDF8FF",
"~  c #EEF9FF",
"^  c gray94",
"/  c #F3F3F3",
"(  c #F4F4F4",
")  c gray96",
"_  c #F6F6F6",
"`  c gray97",
"'  c #F4FFF7",
"]  c #FFFEF0",
"[  c #FFFEF1",
"{  c #FFFEF6",
"}  c #FFF0FA",
"|  c #FFF1FC",
" . c #F8F4FF",
".. c #FAF7FF",
"X. c #FBF7FF",
"o. c #F0F9FF",
"O. c #F4FBFF",
"+. c #F7FCFF",
"@. c #F9F9F9",
"#. c gray98",
"$. c #FBFBFB",
"%. c #FFF8F8",
"&. c #FFFCF9",
"*. c #FFFDFB",
"=. c #FFF8FD",
"-. c #FFFAFD",
";. c #FFFAFF",
":. c #FFFBFF",
">. c #F9FDFF",
",. c gray99",
"<. c #FFFCFC",
"1. c #FFFFFC",
"2. c #FFFEFD",
"3. c #FFFFFD",
"4. c #FFFDFE",
"5. c #FEFDFF",
"6. c #FEFEFE",
"7. c #FFFEFE",
"8. c #FEFFFE",
"9. c #FFFFFE",
"0. c #FFFEFF",
"q. c #FEFFFF",
"w. c white",
/* pixels */
"                                                                ",
"                                                                ",
"                                                                ",
"                      8 b V ) ) ) ) ^ b w                       ",
"                > b ` w.w.w.w.w.w.w.w.w.w.` B 2                 ",
"              x @.w.w.w.w.w.w.w.w.w.w.w.w.w.w.,.B               ",
"          ; ^ w.w.w.w.w.w.w.w.w.w.w.w.w.w.w.w.w.w.) 5           ",
"        < ) w.w.w.....w.<.%.w.w.w.w.;.w.w.w.w.w.w.w.@.8         ",
"        ( w.w.w.w.h @  .p i w.G F w.& j w.w.w.w.w.w.w.@.5       ",
"      V w.w.w.w.w.$ @ R y u w.a l } + & w.w.w.w.w.w.w.w.^       ",
"    r w.w.w.w.w.w.U U w.D S w.H ' =.E E w.w.w.w.w.w.w.w.w.b     ",
"    ^ w.w.w.w.w.w.w.w.w.w.w.w.w.w.w.w.w.w.w.w.w.w.w.w.w.w.@.<   ",
"  w w.w.w.w.w.w.w.w.w.w.w.w.w.w.w.w.w.w.w.w.w.w.w.w.w.w.w.w.x   ",
"  B w.w.w.w.w.w.w.w.w.w.w.w.w.w.w.w.w.w.w.w.w.w.w.w.w.w.w.w.)   ",
"  ^ w.w.w.w.w.w.w.w.w.w.w.w.w.w.w.w.w.w.w.w.w.w.w.w.w.w.w.w.@.< ",
"; @.w.w.w.{ I w.w.w.O.~ w.w.w.;.;.w.w.L L <.w.w.w.w.w.w.w.w.w.5 ",
"< ,.w.w.,.d f w.w.>.z = ~ w.w.k T w.w.o . K w.w.w.w.w.w.w.w.w.9 ",
"< ,.w.w.,.O g w.w.+.= = ~ w.w.k T w.w.s X K w.w.w.w.w.w.w.w.w.9 ",
"- @.w.w.w.] I w.w.w.W W w.w.w.;.;.w.w.,.,.,.w.w.w.w.w.w.w.w.w.6 ",
"  ^ w.w.w.w.w.w.w.w.w.w.w.w.w.w.w.w.w.w.w.w.w.w.w.w.w.w.w.w.@.> ",
"  B w.w.w.w.w.w.w.w.w.w.w.w.w.w.w.w.w.w.w.w.w.w.w.w.w.w.w.w.^   ",
"  w w.w.w.w.w.w.w.w.w.w.w.w.w.w.w.w.w.w.w.w.w.w.w.w.w.w.w.w.b   ",
"    ( w.w.w.w.w.w.w.w.w.w.w.w.w.w.w.w.w.w.w.w.w.w.w.w.w.w.@.<   ",
"    r w.w.w.w.w.w.w.w.w.w.w.w.w.w.w.w.w.w.w.w.w.w.w.w.w.w.b     ",
"      V w.w.w.w.w.w.w.w.w.w.w.w.w.w.w.w.w.w.w.w.w.w.w.w.)       ",
"        ) w.w.w.w.w.w.w.w.w.w.w.w.w.w.w.w.w.w.w.w.w.w.@.5       ",
"        2 ) w.w.w.w.w.w.w.w.w.w.w.w.w.w.w.w.w.w.w.w.@.8         ",
"          ; ^ w.w.w.w.w.w.w.w.w.w.w.w.w.w.w.w.w.w.) 8           ",
"              x @.w.w.w.w.w.w.w.w.w.w.w.w.w.w.@.B               ",
"                < b ) w.w.w.w.w.w.w.w.w.w.@.B 5                 ",
"                      w b V ) ) ) ) ^ b r                       ",
"                                                                "
};
